<svg xmlns="http://www.w3.org/2000/svg" viewBox="0 0 48 48" fill="none"><svg xmlns="http://www.w3.org/2000/svg" viewBox="0 0 32 32">

  <!-- Background Circle -->    <rect width="32" height="32" fill="#2d5a27"/>

  <circle cx="24" cy="24" r="24" fill="#0f172a"/>    <text x="16" y="24" text-anchor="middle" font-size="20" fill="#4caf50">🌱</text>

  </svg>
  <!-- Greenhouse Shape -->
  <path d="M24 8L12 18V36C12 37.1 12.9 38 14 38H34C35.1 38 36 37.1 36 36V18L24 8Z" 
        fill="url(#greenhouse-gradient)" 
        stroke="#10b981" 
        stroke-width="2"/>
  
  <!-- Plant -->
  <g transform="translate(20, 28)">
    <!-- Stem -->
    <line x1="4" y1="0" x2="4" y2="6" stroke="#10b981" stroke-width="2" stroke-linecap="round"/>
    
    <!-- Leaves -->
    <path d="M4 2 Q2 1 1 2" stroke="#10b981" stroke-width="1.5" fill="none" stroke-linecap="round"/>
    <path d="M4 2 Q6 1 7 2" stroke="#10b981" stroke-width="1.5" fill="none" stroke-linecap="round"/>
    <path d="M4 4 Q2 3 1 4" stroke="#059669" stroke-width="1.5" fill="none" stroke-linecap="round"/>
    <path d="M4 4 Q6 3 7 4" stroke="#059669" stroke-width="1.5" fill="none" stroke-linecap="round"/>
  </g>
  
  <!-- Temperature Indicator -->
  <circle cx="14" cy="24" r="2" fill="#f59e0b" opacity="0.8"/>
  
  <!-- Humidity Drop -->
  <path d="M35 24 Q35 22 34 21 Q33 20 33 22 Q33 24 34 25 Q35 26 35 24Z" 
        fill="#3b82f6" 
        opacity="0.8"/>
  
  <!-- Gradients -->
  <defs>
    <linearGradient id="greenhouse-gradient" x1="0%" y1="0%" x2="0%" y2="100%">
      <stop offset="0%" style="stop-color:#1e293b;stop-opacity:0.9" />
      <stop offset="100%" style="stop-color:#334155;stop-opacity:0.8" />
    </linearGradient>
  </defs>
</svg>
