<?xml version="1.0" encoding="UTF-8"?>
<svg xmlns="http://www.w3.org/2000/svg" style="display:none">
  <!-- Greenhouse logo (house with leaf) -->
  <symbol id="i-greenhouse" viewBox="0 0 24 24" fill="none" stroke="currentColor" stroke-width="1.75" stroke-linecap="round" stroke-linejoin="round">
    <path d="M3 10.5 12 4l9 6.5v8.5a2 2 0 0 1-2 2H5a2 2 0 0 1-2-2z"/>
    <path d="M8 16c3 0 4-3 6-5 0 3-1 7-6 7-1.5 0-2.5-.5-3-1 1-.5 2-.9 3-1z"/>
  </symbol>
  <!-- DHT (thermometer + drop) -->
  <symbol id="i-dht" viewBox="0 0 24 24" fill="none" stroke="currentColor" stroke-width="1.75" stroke-linecap="round" stroke-linejoin="round">
    <path d="M14 14.76V6a2 2 0 1 0-4 0v8.76a4 4 0 1 0 4 0Z"/>
    <path d="M18 10s3 2.5 3 5a3 3 0 0 1-6 0c0-2.5 3-5 3-5Z"/>
  </symbol>
  <!-- Soil moisture (leaf + droplet) -->
  <symbol id="i-soil" viewBox="0 0 24 24" fill="none" stroke="currentColor" stroke-width="1.75" stroke-linecap="round" stroke-linejoin="round">
    <path d="M4 14c3 0 5-2 8-2s5 2 8 2"/>
    <path d="M7 10c2 0 3-1 5-1s3 1 5 1"/>
    <path d="M6 6c2 0 3-1 6-1"/>
    <path d="M18 7s3 2.5 3 5a3 3 0 0 1-6 0c0-2.5 3-5 3-5Z"/>
  </symbol>
  <!-- Control (toggle switch) -->
  <symbol id="i-control" viewBox="0 0 24 24" fill="none" stroke="currentColor" stroke-width="1.75" stroke-linecap="round" stroke-linejoin="round">
    <rect x="2" y="9" width="20" height="6" rx="3"/>
    <circle cx="9" cy="12" r="3"/>
  </symbol>
  <!-- Key (authentication) -->
  <symbol id="i-key" viewBox="0 0 24 24" fill="none" stroke="currentColor" stroke-width="1.75" stroke-linecap="round" stroke-linejoin="round">
    <circle cx="7" cy="14" r="4"/>
    <path d="M11 14h8M15 10v8"/>
  </symbol>
  <!-- Logs (list) -->
  <symbol id="i-logs" viewBox="0 0 24 24" fill="none" stroke="currentColor" stroke-width="1.75" stroke-linecap="round" stroke-linejoin="round">
    <path d="M8 6h12M4 6h.01M8 12h12M4 12h.01M8 18h12M4 18h.01"/>
  </symbol>
  <symbol id="i-dashboard" viewBox="0 0 24 24" fill="none" stroke="currentColor" stroke-width="1.75" stroke-linecap="round" stroke-linejoin="round">
    <path d="M3 13h8V3H3zM13 21h8v-8h-8zM3 21h8v-6H3zM13 11h8V3h-8z"/>
  </symbol>
  <symbol id="i-thermo" viewBox="0 0 24 24" fill="none" stroke="currentColor" stroke-width="1.75" stroke-linecap="round" stroke-linejoin="round">
    <path d="M14 14.76V5a2 2 0 1 0-4 0v9.76a4 4 0 1 0 4 0Z"/>
    <path d="M10 9h4"/>
  </symbol>
  <symbol id="i-humidity" viewBox="0 0 24 24" fill="none" stroke="currentColor" stroke-width="1.75" stroke-linecap="round" stroke-linejoin="round">
    <path d="M12 2s7 6.5 7 11.5A7 7 0 0 1 5 13.5C5 8.5 12 2 12 2Z"/>
  </symbol>
  <symbol id="i-fan" viewBox="0 0 24 24" fill="none" stroke="currentColor" stroke-width="1.75" stroke-linecap="round" stroke-linejoin="round">
    <path d="M12 12l3-7a4 4 0 1 1-6 0l3 7Zm0 0l-7 3a4 4 0 1 1 0-6l7 3Zm0 0l3 7a4 4 0 1 1-6 0l3-7Z"/>
  </symbol>
  <symbol id="i-light" viewBox="0 0 24 24" fill="none" stroke="currentColor" stroke-width="1.75" stroke-linecap="round" stroke-linejoin="round">
    <path d="M9 18h6M8 22h8M12 2c4.418 0 8 3.582 8 8 0 2.613-1.8 5.2-3 6-1 1-1 2-1 2H8s0-1-1-2c-1.2-.8-3-3.387-3-6 0-4.418 3.582-8 8-8Z"/>
  </symbol>
  <symbol id="i-pump" viewBox="0 0 24 24" fill="none" stroke="currentColor" stroke-width="1.75" stroke-linecap="round" stroke-linejoin="round">
    <path d="M4 10h8a4 4 0 0 1 0 8H4z"/>
    <path d="M12 10V6h4"/>
  </symbol>
  <symbol id="i-heater" viewBox="0 0 24 24" fill="none" stroke="currentColor" stroke-width="1.75" stroke-linecap="round" stroke-linejoin="round">
    <path d="M8 21s-2-2-2-5 2-5 2-5M12 21s-2-2-2-5 2-5 2-5M16 21s-2-2-2-5 2-5 2-5"/>
  </symbol>
  <symbol id="i-settings" viewBox="0 0 24 24" fill="none" stroke="currentColor" stroke-width="1.75" stroke-linecap="round" stroke-linejoin="round">
    <path d="M12 15a3 3 0 1 0 0-6 3 3 0 0 0 0 6Z"/>
    <path d="M19.4 15a1.65 1.65 0 0 0 .33 1.82l.06.06a2 2 0 1 1-2.83 2.83l-.06-.06a1.65 1.65 0 0 0-1.82-.33 1.65 1.65 0 0 0-1 1.51V22a2 2 0 1 1-4 0v-.09a1.65 1.65 0 0 0-1-1.51 1.65 1.65 0 0 0-1.82.33l-.06.06A2 2 0 1 1 4.2 19.4l.06-.06a1.65 1.65 0 0 0 .33-1.82 1.65 1.65 0 0 0-1.51-1H3a2 2 0 1 1 0-4h.09a1.65 1.65 0 0 0 1.51-1 1.65 1.65 0 0 0-.33-1.82l-.06-.06A2 2 0 1 1 6 4.2l.06.06a1.65 1.65 0 0 0 1.82.33H8a1.65 1.65 0 0 0 1-1.51V3a2 2 0 1 1 4 0v.09c0 .66.38 1.26 1 1.51.58.25 1.25.13 1.73-.33l.06-.06A2 2 0 1 1 19.8 6l-.06.06c-.46.48-.58 1.15-.33 1.73.25.62.85 1 1.51 1H21a2 2 0 1 1 0 4h-.09c-.66 0-1.26.38-1.51 1Z"/>
  </symbol>
  <symbol id="i-info" viewBox="0 0 24 24" fill="none" stroke="currentColor" stroke-width="1.75" stroke-linecap="round" stroke-linejoin="round">
    <circle cx="12" cy="12" r="10"/>
    <path d="M12 16v-4M12 8h.01"/>
  </symbol>
</svg>